<svg width="512" height="512" xmlns="http://www.w3.org/2000/svg">

 <g>
  <title>background</title>
  <rect fill="none" id="canvas_background" height="402" width="582" y="-1" x="-1"/>
 </g>
 <g>
  <title>Layer 1</title>
  <path id="svg_1" fill-rule="evenodd" fill="#0ac4ba" d="m400,32l-54.516,0l-73.484,0c0,0 -10.531,0 -16,0c-53.008,0 -95.992,35.812 -95.992,79.992c0,31.828 22.336,59.203 54.625,72.102l-0.055,0.109c5.547,2.508 9.422,8.055 9.422,14.547c0,8.828 -7.164,16 -16.008,16c-2.836,0 -5.453,-0.805 -7.75,-2.102c-42.711,-18.171 -72.242,-56.328 -72.242,-100.656c0,-61.851 57.305,-111.992 128,-111.992l144,0c8.844,0 16,7.156 16,16c0,8.828 -7.156,16 -16,16l0,0zm-208.008,280c0,-8.844 7.18,-16 16,-16c8.844,0 16.008,7.156 16.008,16c0,8.828 -7.164,16 -16.008,16c-8.82,0 -16,-7.172 -16,-16l0,0zm-48.117,7.625c8.703,0 15.758,7.047 15.758,15.75c0,6.023 -3.445,11.195 -8.414,13.828l0.055,0.094c-24.165,13.812 -39.274,33.187 -39.274,54.695c0,41.977 57.297,75.992 128,75.992c70.695,0 128,-34.016 128,-75.992c0,-24.258 -19.203,-45.82 -49,-59.719l0,0c-36.336,-11.453 -63,-43.125 -63,-84.82c0,-36.789 22.141,-68.133 53.242,-80.477l-0.195,-0.32c25.867,-14.336 42.945,-38.836 42.945,-66.664c0,-9.148 -1.938,-17.898 -5.328,-26.078l0.219,-0.094c-0.703,-1.812 -1.133,-3.766 -1.133,-5.828c0,-8.828 7.156,-16 16,-16c7.93,0 14.461,5.773 15.734,13.359c4.109,10.93 6.516,22.516 6.516,34.641c0,39.453 -23.359,74.07 -58.594,94.023c0,0 -5.148,2.203 -11.156,5.797c-4.016,2.398 -7.789,5.398 -11.195,9.023c-20.219,21.469 -20.219,56.273 0,77.742c5.078,5.383 10.945,9.422 17.188,12.094c7.25,3.102 12.859,5.617 12.859,5.617c40.437,19.587 66.898,51.517 66.898,87.704c0,59.649 -71.633,108.008 -160,108.008c-88.375,0 -160,-48.359 -160,-108.008c0,-31.953 20.719,-60.547 53.383,-80.297c2.797,-2.492 6.461,-4.07 10.492,-4.07l0,0z" clip-rule="evenodd"/>
 </g>
</svg>